<mxfile host="65bd71144e">
    <diagram id="oQPx3krlLzihS0a8xovu" name="第 1 页">
        <mxGraphModel dx="466" dy="614" grid="1" gridSize="10" guides="1" tooltips="1" connect="1" arrows="1" fold="1" page="1" pageScale="1" pageWidth="827" pageHeight="1169" math="0" shadow="0">
            <root>
                <mxCell id="0"/>
                <mxCell id="1" parent="0"/>
                <mxCell id="2" value="" style="whiteSpace=wrap;html=1;aspect=fixed;" vertex="1" parent="1">
                    <mxGeometry x="20" y="40" width="430" height="430" as="geometry"/>
                </mxCell>
                <mxCell id="3" value="项目下拉框" style="rounded=1;whiteSpace=wrap;html=1;" vertex="1" parent="1">
                    <mxGeometry x="30" y="50" width="70" height="20" as="geometry"/>
                </mxCell>
                <mxCell id="4" value="默认的更新包选择" style="rounded=0;whiteSpace=wrap;html=1;" vertex="1" parent="1">
                    <mxGeometry x="30" y="80" width="230" height="20" as="geometry"/>
                </mxCell>
                <mxCell id="5" value="生成" style="rounded=0;whiteSpace=wrap;html=1;" vertex="1" parent="1">
                    <mxGeometry x="280" y="80" width="80" height="20" as="geometry"/>
                </mxCell>
                <mxCell id="9" value="生成的更新包路径" style="rounded=0;whiteSpace=wrap;html=1;" vertex="1" parent="1">
                    <mxGeometry x="30" y="110" width="230" height="20" as="geometry"/>
                </mxCell>
            </root>
        </mxGraphModel>
    </diagram>
</mxfile>